<?xml version="1.0" encoding="UTF-8"?>
<svg xmlns="http://www.w3.org/2000/svg" width="25" height="25" viewBox="0 0 25 25" version="1.1">
	<g id="surface1">
		<path style=" stroke:none;fill-rule:nonzero;fill:rgb(94.117647%,31.764706%,20%);fill-opacity:1;" d="M 23.894531 11.445312 L 13.554688 1.105469 C 12.960938 0.511719 11.992188 0.511719 11.398438 1.105469 L 9.25 3.253906 L 11.972656 5.976562 C 12.605469 5.761719 13.332031 5.90625 13.835938 6.410156 C 14.34375 6.917969 14.488281 7.652344 14.265625 8.285156 L 16.894531 10.910156 C 17.527344 10.691406 18.261719 10.832031 18.769531 11.339844 C 19.476562 12.050781 19.476562 13.199219 18.769531 13.910156 C 18.058594 14.617188 16.910156 14.617188 16.199219 13.910156 C 15.667969 13.375 15.535156 12.589844 15.804688 11.933594 L 13.359375 9.488281 L 13.359375 15.929688 C 13.53125 16.015625 13.691406 16.128906 13.835938 16.273438 C 14.546875 16.980469 14.546875 18.128906 13.835938 18.839844 C 13.128906 19.546875 11.980469 19.546875 11.269531 18.839844 C 10.5625 18.128906 10.5625 16.980469 11.269531 16.273438 C 11.445312 16.097656 11.648438 15.964844 11.867188 15.875 L 11.867188 9.375 C 11.648438 9.285156 11.445312 9.152344 11.269531 8.976562 C 10.734375 8.441406 10.605469 7.652344 10.878906 6.992188 L 8.195312 4.308594 L 1.105469 11.398438 C 0.507812 11.992188 0.507812 12.960938 1.105469 13.554688 L 11.445312 23.894531 C 12.039062 24.488281 13.007812 24.488281 13.601562 23.894531 L 23.894531 13.601562 C 24.488281 13.007812 24.488281 12.039062 23.894531 11.445312 Z M 23.894531 11.445312 "/>
	</g>
</svg>
